<svg width="236.988" height="190.396" xmlns="http://www.w3.org/2000/svg" xmlns:svg="http://www.w3.org/2000/svg">
 <g>
  <title>Layer 1</title>
  <g id="Layer_1"/>
  <g id="Layer_2">
   <g transform="rotate(-6.16543 138.653 100.805)" id="svg_11">
    <ellipse ry="61.8574" rx="93.4979" cy="143.53" cx="182.379" transform="rotate(-135.898 182.379 143.53)" stroke-width="null" stroke-linejoin="null" stroke-linecap="null" stroke-dasharray="null" fill="#0ff2c9" id="svg_9"/>
    <path d="m26.00354,61.38689l0,86.001l30.33299,-4c5.66701,0.668 8.33301,-3.666 8.33301,-3.666l3.66699,-10.334c13.66701,-21.66801 43,-30 43,-30c31.99998,-12 53.00002,-37.99999 53.00002,-37.99999l0.92697,-1.461l-0.92697,-1.543c0,0 -21.00003,-25.99959 -53.00002,-37.99959c0,0 -29.334,-8.33201 -43,-30.00001l-3.66699,-10.334c0,0 -2.666,-4.334 -8.33301,-3.666l-30.33299,-4l0,89.00259z" transform="rotate(-135.898 95.6335 59.8861)" fill="#0f297e" id="svg_1"/>
    <path d="m212.55681,178.22195l-28.25061,0c0,0 -1.539,-0.095 -1.623,-1.202c0,0 -0.03101,-0.92601 1.66499,-0.94101l6.80762,-0.034c2.543,-0.039 2.634,-0.89799 2.634,-0.89799c0.323,-1.168 -2.65601,-1 -2.65601,-1l-17.0876,-0.09601c-2.175,0.048 -2.16299,-0.724 -2.16299,-0.724c-0.31702,-1.218 1.91499,-1.13899 1.91499,-1.13899l8.745,-0.076c3.287,0.13499 3.287,-0.924 3.287,-0.924c0.25,-1.10701 -3.164,-0.92601 -3.164,-0.92601l-21.25,0c0,0 -1.75,-0.233 -1.68799,-1.20799c0,0 -0.18802,-0.72101 1.75,-0.79401l7,0c0,0 3.81299,0.21701 4.31299,-0.90199c0,0 0.563,-0.993 -1.75,-1.05l-4.634,0l-9.922,-0.095c-2.623,0.10699 -2.83099,-0.92799 -2.83099,-0.92799c-0.5,-1.29901 2.31599,-1.246 2.31599,-1.246l23.63899,0.26399c3.155,0.116 3.08301,-1.086 3.08301,-1.086c0.07199,-1.05899 -2.19299,-0.951 -2.19299,-0.951l-19.48601,0.01201c-3.806,0.16 -3.605,-1.20601 -3.605,-1.20601c-0.076,-1.13599 2.967,-1.03699 2.967,-1.03699c2.87401,0.11699 2.634,-0.89801 2.634,-0.89801c0.03099,-1.222 -2.65599,-1 -2.65599,-1l-13.58101,-0.09599c-2.175,0.049 -2.16299,-0.72301 -2.16299,-0.72301c-0.317,-1.21899 1.91499,-1.14 1.91499,-1.14l8.745,-0.07599c3.287,0.13499 3.287,-0.92401 3.287,-0.92401c0.25,-1.106 -3.164,-0.92599 -3.164,-0.92599l-9.922,-0.09599c-2.623,0.10799 -2.83099,-0.927 -2.83099,-0.927c-0.5,-1.29901 2.31599,-1.246 2.31599,-1.246l37.68399,0.26399c3.15501,0.116 3.08301,-1.086 3.08301,-1.086c0.07201,-1.05899 -2.19299,-0.95099 -2.19299,-0.95099l-33.53101,0.01199c-4.207,-0.03 -3.77,-1.36499 -3.77,-1.36499s-0.28999,-0.91702 3.39801,-0.845l7.15498,-0.03302c2.54301,-0.039 2.634,-0.89798 2.634,-0.89798c0.323,-1.168 -2.65599,-1 -2.65599,-1l-13.58099,-0.09601c-2.175,0.048 -2.16301,-0.72299 -2.16301,-0.72299c-0.317,-1.21899 1.91499,-1.14001 1.91499,-1.14001l8.74501,-0.07599c3.287,0.13501 3.287,-0.92401 3.287,-0.92401c0.25,-1.10599 -3.164,-0.92599 -3.164,-0.92599l-9.922,-0.09601c-2.623,0.108 -2.83101,-0.927 -2.83101,-0.927c-0.5,-1.29898 2.31599,-1.24597 2.31599,-1.24597l23.30501,0.26398c3.155,0.116 3.08301,-1.08701 3.08301,-1.08701c0.07199,-1.05798 -2.19301,-0.94998 -2.19301,-0.94998l-19.15199,0.01199c-3.957,0.08099 -3.832,-1.146 -3.832,-1.146c-0.313,-1.19101 2.09399,-1.09702 2.09399,-1.09702l8.522,0c2.543,-0.039 2.634,-0.89798 2.634,-0.89798c0.323,-1.16699 -2.65601,-1 -2.65601,-1l-13.58099,-0.095c-2.175,0.048 -2.16301,-0.724 -2.16301,-0.724c-0.31699,-1.21802 1.91501,-1.14001 1.91501,-1.14001l8.745,-0.07599c3.287,0.13501 3.287,-0.92401 3.287,-0.92401c0.25,-1.10599 -3.164,-0.92599 -3.164,-0.92599l-9.922,-0.095c-2.623,0.10699 -2.83101,-0.927 -2.83101,-0.927c-0.5,-1.29899 2.31601,-1.24599 2.31601,-1.24599l29.106,0.26399c3.155,0.116 3.08299,-1.087 3.08299,-1.087c0.07201,-1.058 -2.19301,-0.951 -2.19301,-0.951l-24.95399,0.012c-3.70799,0.195 -4.01999,-1.176 -4.01999,-1.176c-0.188,-1.3717 1.92299,-1.3486 1.92299,-1.3486l19.435,-0.1698c2.543,-0.0386 2.634,-0.8978 2.634,-0.8978c0.323,-1.16741 -2.65601,-1 -2.65601,-1l-13.58099,-0.0958c-2.175,0.0485 -2.16298,-0.7235 -2.16298,-0.7235c-0.317,-1.2182 1.91498,-1.1397 1.91498,-1.1397l8.74501,-0.0762c3.28699,0.1351 3.28699,-0.9238 3.28699,-0.9238c0.25,-1.1062 -3.16399,-0.9261 -3.16399,-0.9261l-9.92201,-0.0953c-2.623,0.1074 -2.83098,-0.9272 -2.83098,-0.9272c-0.5,-1.2991 2.31598,-1.246 2.31598,-1.246l32.29701,0.2639c3.155,0.11599 3.08299,-1.0866 3.08299,-1.0866c0.07201,-1.0583 -2.19299,-0.951 -2.19299,-0.951l-28.145,0.0127c-3.287,0.0122 -3.605,-1.2061 -3.605,-1.2061c-0.24901,-1.422 2.547,-1.2869 2.547,-1.2869l19.43501,-0.1698c2.543,-0.0387 2.63397,-0.8978 2.63397,-0.8978c0.32303,-1.1674 -2.65599,-1 -2.65599,-1l-13.58101,-0.09579c-2.17497,0.0485 -2.16299,-0.7235 -2.16299,-0.7235c-0.317,-1.2182 1.91501,-1.1397 1.91501,-1.1397l8.745,-0.07619c3.28702,0.1351 3.28702,-0.92381 3.28702,-0.92381c0.25,-1.1063 -3.164,-0.92609 -3.164,-0.92609l-9.92201,-0.09531c-2.62299,0.10741 -2.83099,-0.9272 -2.83099,-0.9272c-0.5,-1.2991 2.31599,-1.24599 2.31599,-1.24599l19.70399,0.2639c3.155,0.116 3.08301,-1.0866 3.08301,-1.0866c0.07199,-1.0584 -2.19301,-0.951 -2.19301,-0.951l-15.55099,0.01331c-3.668,0.097 -3.605,-1.2061 -3.605,-1.2061c-0.31801,-1.2183 2.062,-1.2263 2.062,-1.2263l3.50999,0l28.17661,-0.1698c2.54301,-0.0387 2.634,-0.8978 2.634,-0.8978c0.323,-1.1674 -2.65599,-1 -2.65599,-1l-13.58061,-0.0959c-2.17499,0.0485 -2.16301,-0.7234 -2.16301,-0.7234c-0.31699,-1.2182 1.91502,-1.13969 1.91502,-1.13969l21.10161,-0.0762c3.28697,0.1351 3.28697,-0.9238 3.28697,-0.9238c0.37302,-1.6496 -6.58598,-0.6536 -7.90599,-1.3413c-0.28201,-0.1478 -0.54698,-0.3879 -0.59799,-0.6073c-0.5,-1.2991 2.31601,-1.246 2.31601,-1.246l4.25197,0.082l16.04103,0.1674" transform="rotate(-135.898 173.975 134.348)" fill="#ffffff" id="svg_2"/>
    <g transform="rotate(-135.898 132.067 95.2033)" id="svg_3">
     <path d="m147.95279,90.3219c0,0.022 0.08101,9.93 0,9.93c-0.21399,0 -26.778,0.268 -29.59799,-0.808c-3.11499,-1.188 -2.701,-7.14799 -0.221,-8.25c3.8,-1.687 29.81899,-0.872 29.81899,-0.872z" fill="#0ff2c9" id="svg_4"/>
    </g>
    <g id="svg_5">
     <polygon transform="rotate(-135.898 111.778 146.238)" fill="#0ff2c9" id="svg_7"/>
     <polygon points="116.184,39.9426 84.8407,48.6516 34.1276,45.3256 34.1276,34.5606 84.8407,31.2336 116.184,39.9426" transform="rotate(-135.898 75.1557 39.9426)" stroke-width="null" fill="#0ff2c9" id="svg_8"/>
    </g>
   </g>
  </g>
 </g>
</svg>